<svg width="96" height="96" viewBox="0 0 96 96" fill="none" xmlns="http://www.w3.org/2000/svg">
<path d="M36.2328 60.1608C28.7953 52.7233 21.2974 45.2254 13.9204 37.7879C12.0459 36.0344 9.74814 35.3088 7.69225 35.4902C5.63637 35.6716 3.76188 36.6995 2.4316 38.1507C1.10132 39.6019 0.133848 41.4159 0.0129135 43.4718C-0.108021 45.5277 0.617586 47.7045 2.31067 49.3976L34.9025 83.864C35.5677 84.5896 36.8375 84.5896 37.5026 83.864L93.6767 25.9363C95.3698 24.2432 96.1558 22.006 95.9744 20.0105C95.8535 17.9547 94.9465 16.1406 93.6162 14.6894C92.2859 13.2382 90.4114 12.2103 88.3556 12.0289C86.2997 11.8475 84.0624 12.5126 82.1274 14.2662C81.2204 14.8104 81.039 16.2011 81.7042 17.0476C82.4298 17.8337 83.8205 17.7733 84.4857 16.9872C85.7555 15.8383 86.9044 15.5964 87.9928 15.6569C89.0812 15.7778 90.1091 16.3825 90.9557 17.229C91.7417 18.0756 92.2859 19.2245 92.3464 20.3129C92.4069 21.4013 92.1045 22.4897 91.0766 23.5176C72.8155 42.202 54.4939 61.1887 36.2328 80.0545C25.9534 68.8681 15.0088 58.2258 4.91076 46.9185C3.88282 45.8301 3.52001 44.8021 3.58048 43.7137C3.64095 42.6253 4.18515 41.5369 4.97123 40.6299C5.7573 39.7833 6.84571 39.1787 7.93412 39.1182C9.02253 38.9973 10.1714 39.2996 11.3808 40.4485C19.181 48.3092 27.0418 56.1095 34.9025 63.9702C35.5677 64.6958 36.8375 64.6958 37.5026 63.9702L75.5365 25.8759C76.2016 25.2107 76.2016 23.9409 75.476 23.2758C74.8109 22.6106 73.6016 22.6106 72.9364 23.2758" fill="#FF9966"/>
</svg>
