<svg width="24" height="23" viewBox="0 0 24 23" fill="none" xmlns="http://www.w3.org/2000/svg">
<g clip-path="url(#clip0)">
<path d="M12 2.07156C15.204 2.07156 15.584 2.08305 16.85 2.1386C20.102 2.28034 21.621 3.75811 21.769 6.84965C21.827 8.06117 21.838 8.42511 21.838 11.4937C21.838 14.5632 21.826 14.9261 21.769 16.1377C21.62 19.2263 20.105 20.707 16.85 20.8487C15.584 20.9043 15.206 20.9158 12 20.9158C8.796 20.9158 8.416 20.9043 7.151 20.8487C3.891 20.706 2.38 19.2215 2.232 16.1367C2.174 14.9252 2.162 14.5622 2.162 11.4927C2.162 8.42415 2.175 8.06117 2.232 6.84869C2.381 3.75811 3.896 2.27939 7.151 2.13764C8.417 2.08305 8.796 2.07156 12 2.07156ZM12 0C8.741 0 8.333 0.0134081 7.053 0.0689562C2.695 0.260501 0.273 2.57628 0.073 6.75388C0.014 7.98072 0 8.37147 0 11.4927C0 14.6139 0.014 15.0056 0.072 16.2315C0.272 20.4053 2.69 22.7249 7.052 22.9164C8.333 22.972 8.741 22.9854 12 22.9854C15.259 22.9854 15.668 22.972 16.948 22.9164C21.302 22.7249 23.73 20.4091 23.927 16.2315C23.986 15.0056 24 14.6139 24 11.4927C24 8.37147 23.986 7.98072 23.928 6.75483C23.732 2.5849 21.311 0.261459 16.949 0.0699139C15.668 0.0134081 15.259 0 12 0V0ZM12 5.5912C8.597 5.5912 5.838 8.23356 5.838 11.4927C5.838 14.7518 8.597 17.3952 12 17.3952C15.403 17.3952 18.162 14.7528 18.162 11.4927C18.162 8.23356 15.403 5.5912 12 5.5912ZM12 15.3236C9.791 15.3236 8 13.6093 8 11.4927C8 9.37708 9.791 7.6618 12 7.6618C14.209 7.6618 16 9.37708 16 11.4927C16 13.6093 14.209 15.3236 12 15.3236ZM18.406 3.97935C17.61 3.97935 16.965 4.59708 16.965 5.35847C16.965 6.11986 17.61 6.73759 18.406 6.73759C19.201 6.73759 19.845 6.11986 19.845 5.35847C19.845 4.59708 19.201 3.97935 18.406 3.97935Z" fill="white"/>
</g>
<defs>
<clipPath id="clip0">
<rect width="24" height="22.9854" fill="white"/>
</clipPath>
</defs>
</svg>
