<svg width="24" height="23" viewBox="0 0 24 23" fill="none" xmlns="http://www.w3.org/2000/svg">
<g clip-path="url(#clip0)">
<path d="M24 4.36434C23.117 4.73977 22.168 4.99261 21.172 5.10658C22.189 4.52332 22.97 3.59912 23.337 2.49774C22.386 3.03789 21.332 3.43056 20.21 3.64222C19.313 2.72567 18.032 2.15295 16.616 2.15295C13.437 2.15295 11.101 4.99357 11.819 7.9424C7.728 7.74607 4.1 5.86893 1.671 3.01586C0.381 5.13531 1.002 7.90792 3.194 9.31195C2.388 9.28705 1.628 9.07539 0.965 8.72199C0.911 10.9066 2.546 12.9503 4.914 13.4053C4.221 13.5853 3.462 13.6275 2.69 13.4857C3.316 15.359 5.134 16.7219 7.29 16.7602C5.22 18.3146 2.612 19.0089 0 18.7139C2.179 20.0519 4.768 20.8324 7.548 20.8324C16.69 20.8324 21.855 13.4378 21.543 6.80558C22.505 6.13996 23.34 5.30962 24 4.36434Z" fill="white"/>
</g>
<defs>
<clipPath id="clip0">
<rect width="24" height="22.9854" fill="white"/>
</clipPath>
</defs>
</svg>
