<svg fill="none" height="23" viewBox="0 0 24 23" width="24" xmlns="http://www.w3.org/2000/svg" xmlns:xlink="http://www.w3.org/1999/xlink"><clipPath id="a"><path d="m0 0h24v22.6833h-24z"/></clipPath><g clip-path="url(#a)"><path d="m19 0h-14c-2.761 0-5 2.11616-5 4.72569v13.23191c0 2.6095 2.239 4.7257 5 4.7257h14c2.762 0 5-2.1162 5-4.7257v-13.23191c0-2.60953-2.238-4.72569-5-4.72569zm-11 17.9576h-3v-10.3965h3zm-1.5-11.59493c-.966 0-1.75-.74666-1.75-1.66723 0-.92056.784-1.66722 1.75-1.66722s1.75.74666 1.75 1.66722c0 .92057-.783 1.66723-1.75 1.66723zm13.5 11.59493h-3v-5.2965c0-3.18326-4-2.94225-4 0v5.2965h-3v-10.3965h3v1.66817c1.396-2.44413 7-2.62465 7 2.34013z" fill="#fff"/></g></svg>