<?xml version="1.0" encoding="UTF-8"?>
<svg width="200px" height="200px" viewBox="0 0 200 200" version="1.1" xmlns="http://www.w3.org/2000/svg" xmlns:xlink="http://www.w3.org/1999/xlink">
    <!-- Generator: Sketch 63.1 (92452) - https://sketch.com -->
    <title>YC_Icon_Workplace_Injuries_Green@3x</title>
    <desc>Created with Sketch.</desc>
    <g id="YC_Icon_Workplace_Injuries_Green" stroke="none" stroke-width="1" fill="none" fill-rule="evenodd">
        <g>
            <g id="Group-11" stroke-width="1" fill-rule="evenodd" transform="translate(42.000000, 33.200000)" fill="#0D3F37">
                <path d="M59.3596,29.06512 C59.5224,29.69672 60.0908,30.11632 60.7144,30.11632 C60.83,30.11632 60.9476,30.10192 61.0648,30.07192 C61.8136,29.87872 62.264,29.11552 62.0712,28.36672 L56.6792,7.42752 C56.4856,6.67872 55.7228,6.22872 54.974,6.42112 C54.2252,6.61392 53.7748,7.37712 53.9676,8.12592 L59.3596,29.06512 Z" id="Fill-1"></path>
                <path d="M75.88344,23.01512 C76.04624,23.64672 76.61464,24.06632 77.23824,24.06632 C77.35384,24.06632 77.47144,24.05192 77.58864,24.02192 C78.33744,23.82872 78.78784,23.06552 78.59504,22.31672 L73.20264,1.37752 C73.00944,0.62872 72.24584,0.17872 71.49744,0.37112 C70.74864,0.56392 70.29824,1.32712 70.49104,2.07592 L75.88344,23.01512 Z" id="Fill-3"></path>
                <path d="M77.56076,29.02764 L79.01156,34.66204 C79.17436,35.29364 79.74276,35.71324 80.36636,35.71324 C80.48196,35.71324 80.59956,35.69884 80.71676,35.66884 C81.46556,35.47564 81.91596,34.71244 81.72316,33.96364 L80.27236,28.32924 C80.07956,27.58044 79.31556,27.12964 78.56756,27.32244 C77.81876,27.51564 77.36836,28.27884 77.56076,29.02764" id="Fill-5"></path>
                <path d="M112.98732,76.75576 L106.80812,85.67176 C106.14292,86.63096 104.81452,86.88056 103.84732,86.23056 L103.76932,86.17736 C103.12852,85.74616 102.74852,85.04176 102.752095,84.24856 C102.75412,83.78216 102.92132,83.33096 103.18852,82.94816 C104.83812,80.58336 106.82452,77.72656 106.82452,77.72656 L107.08932,77.34576 C107.36892,76.94256 107.28172,76.39056 106.89172,76.09376 C107.79932,75.49856 108.79172,74.57176 109.48212,73.15176 L112.79052,75.57976 C113.16372,75.85336 113.25132,76.37496 112.98732,76.75576 L112.98732,76.75576 Z M99.98092,70.83896 L99.80132,70.70216 C100.02572,70.08136 100.19572,69.55256 100.31812,69.08296 C100.55932,68.15696 100.62452,67.44336 100.59732,66.63216 L107.15972,71.44736 C106.48532,73.24736 105.10572,73.97456 104.43732,74.22736 L99.98092,70.83896 Z M97.75172,65.98736 C97.73572,66.02896 97.71972,66.07056 97.70332,66.11216 C97.61692,66.33336 97.52812,66.55776 97.43572,66.78496 C97.38132,66.91896 97.32772,67.05256 97.27092,67.18896 C95.55212,71.33136 92.86612,76.33656 88.77892,80.94616 C88.97252,81.19616 89.16012,81.44136 89.34212,81.68296 C89.36892,81.71856 89.39572,81.75456 89.42292,81.79056 C89.46212,81.84336 89.50372,81.89736 89.54292,81.94936 C89.59572,82.02016 89.64852,82.09096 89.70012,82.16096 C89.68172,82.18216 89.66212,82.20576 89.63732,82.23456 C89.50932,82.38616 89.29572,82.63296 89.02172,82.93576 C88.99052,82.97016 88.95972,83.00416 88.92692,83.04016 C88.66172,83.33016 88.34812,83.66096 88.00812,83.99896 C87.98932,84.01776 87.97012,84.03656 87.95132,84.05536 C87.89652,84.10936 87.84372,84.16336 87.78772,84.21696 C87.52172,84.47496 87.24212,84.73056 86.95932,84.97336 C86.95612,84.97616 86.95252,84.97896 86.94932,84.98136 C86.78772,85.11976 86.62532,85.25336 86.46252,85.37936 C86.26452,85.53216 86.06772,85.67136 85.87412,85.79616 C85.82092,85.83056 85.76692,85.86776 85.71412,85.89936 L85.56052,85.98256 C85.50252,85.90216 85.45012,85.82696 85.39012,85.74456 C85.35172,85.69216 85.31492,85.64096 85.27572,85.58736 C85.11252,85.36656 84.94452,85.14096 84.76612,84.90736 C84.15932,84.10976 83.46772,83.24136 82.72172,82.33096 C82.30812,81.82576 81.87852,81.30856 81.43492,80.78176 C81.37092,80.70616 81.30572,80.62936 81.24132,80.55296 C80.16292,79.27656 79.01772,77.95576 77.86772,76.65216 C76.59492,75.20936 75.31932,73.79056 74.12772,72.48176 C73.31572,71.59096 72.54372,70.75056 71.83892,69.99056 C71.73972,69.88336 71.64412,69.78056 71.54732,69.67656 C71.42852,69.54816 71.31172,69.42256 71.19652,69.29936 C71.35492,69.17776 71.51572,69.04856 71.68052,68.90936 C71.81252,68.79736 71.94612,68.68096 72.08052,68.56016 C72.12612,68.51936 72.17132,68.47816 72.21652,68.43656 C72.25012,68.40616 72.28372,68.37456 72.31732,68.34336 C72.44652,68.22416 72.57572,68.10256 72.70452,67.97896 C72.89252,67.79856 73.07892,67.61536 73.26212,67.43096 C73.27932,67.41336 73.29732,67.39616 73.31452,67.37856 C73.31772,67.37536 73.32132,67.37216 73.32452,67.36856 C73.51372,67.17736 73.69812,66.98656 73.87812,66.79816 C74.02132,66.64776 74.16012,66.50056 74.29452,66.35576 C74.40332,66.23896 74.50852,66.12536 74.61012,66.01416 C74.82332,65.78096 75.01852,65.56416 75.19052,65.37016 C75.22772,65.40976 75.26772,65.45256 75.30572,65.49336 C75.37412,65.56656 75.44172,65.63896 75.51292,65.71576 C75.95012,66.18496 76.44532,66.71896 76.98252,67.30176 C77.28772,67.63336 77.60412,67.97736 77.93452,68.33896 C81.22972,64.24616 83.42612,60.01976 84.85772,56.53696 C84.86652,56.51536 84.87532,56.49456 84.88372,56.47296 L84.90252,56.48496 L86.14492,57.28256 L87.38412,58.07816 L89.66772,59.54376 C89.20052,60.62696 88.66892,61.76536 88.06492,62.94096 C86.48892,66.00736 84.41892,69.32256 81.72532,72.54696 C81.79452,72.62496 81.86292,72.70256 81.93252,72.78096 C82.36052,73.26496 82.79052,73.75536 83.22052,74.24896 C83.53092,74.60536 83.84092,74.96336 84.14892,75.32136 C84.47532,75.69976 84.79892,76.07896 85.11972,76.45696 C85.14332,76.48416 85.16612,76.51216 85.18972,76.53976 C89.53572,71.39736 91.98692,65.75776 93.28732,61.86736 L93.88372,62.25016 L95.13852,63.05576 L95.54972,63.31976 L96.78252,64.11096 L97.61212,64.64336 L97.61852,64.64736 L97.88732,64.81976 L98.01252,64.90056 L98.13292,64.97776 C98.01332,65.30536 97.88492,65.64416 97.75172,65.98736 L97.75172,65.98736 Z M57.65132,107.81336 L55.87012,104.56416 L56.70772,104.13856 L57.65132,107.81336 Z M69.40892,94.54336 L58.55092,100.06096 L57.27292,100.71056 L55.99412,101.36016 L52.02572,103.37696 L60.46572,118.77056 L60.62052,119.05256 L60.71692,119.22896 C60.92612,119.61016 61.02732,120.02976 61.02132,120.45256 C61.01932,120.57136 61.00852,120.69056 60.98932,120.80936 C60.97212,120.91576 60.95052,121.02216 60.91932,121.12776 C60.84012,121.39336 60.71132,121.63296 60.55532,121.85256 C60.33612,122.16096 60.05532,122.42296 59.71132,122.60696 L59.27972,122.83776 C58.12052,123.45696 56.69332,123.10136 55.96012,122.01096 L55.85372,121.85256 L54.91292,120.45256 L53.97172,119.05256 L44.01212,104.23176 L42.72572,102.20776 L47.03812,99.50896 L49.27492,98.10896 L51.51252,96.70896 L54.34412,94.93656 L55.58972,94.15736 L56.83452,93.37816 L66.32892,87.43656 L65.13212,85.36416 C65.14532,85.35936 65.15772,85.35416 65.13212,85.36416 L64.55692,84.36736 L60.56412,77.45256 L50.32652,68.03856 L48.43452,66.29856 L47.90892,65.81536 L47.10012,66.73216 L40.27252,74.47536 L39.03772,75.87536 L37.80332,77.27536 L36.30652,78.97256 C35.30772,80.10496 33.57332,80.21416 32.44012,79.21536 C31.85852,78.70256 31.55572,77.99376 31.5500477,77.27536 C31.54652,76.79376 31.67732,76.30896 31.94732,75.87536 C31.98332,75.81736 32.02012,75.75976 32.06132,75.70376 L32.96292,74.47536 L44.43252,58.84736 L44.91492,58.22376 L45.88412,56.97096 L46.07652,57.11816 L47.87612,58.49736 L66.34972,72.65536 C66.89372,73.18016 67.85932,73.96856 68.87372,75.04576 C69.04492,75.28056 69.21652,75.51896 69.38932,75.76176 C69.48372,75.89416 69.57812,76.02776 69.67292,76.16216 C70.71812,77.64816 71.78212,79.24496 72.82652,80.78976 C73.03332,81.09576 73.23972,81.40016 73.44492,81.70056 C74.17532,82.77136 74.79732,83.74656 75.34652,84.66456 C76.42212,86.46096 77.21012,88.03336 77.92772,89.63456 C77.97012,89.73016 78.01212,89.82576 78.05452,89.92096 L69.40892,94.54336 Z M28.29732,119.05256 L23.27772,99.50896 L41.75932,99.50896 L38.85012,101.32976 L41.66852,105.76376 L50.59852,119.05256 L28.29732,119.05256 Z M51.60572,73.01856 L58.35332,79.22376 L62.55292,86.49696 L56.10372,90.53216 L51.60572,73.01856 Z M44.00532,74.47536 L47.94212,70.01096 L49.08892,74.47536 L44.00532,74.47536 Z M17.56692,77.27536 L28.74692,77.27536 C28.75212,78.77056 29.37812,80.24816 30.58852,81.31536 C32.87892,83.33536 36.38652,83.11456 38.40652,80.82416 L41.53612,77.27536 L49.45572,77.27536 C49.57372,77.27536 49.68652,77.25616 49.79612,77.22896 L53.61332,92.09096 L46.23372,96.70896 L22.55852,96.70896 L17.56692,77.27536 Z M16.86612,74.54736 L11.87012,55.09496 L43.79732,55.09496 L42.19652,57.16216 L29.80412,74.04696 C29.70172,74.18616 29.60692,74.32976 29.51932,74.47536 L17.28852,74.47536 C17.14012,74.47536 17.00052,74.50456 16.86612,74.54736 L16.86612,74.54736 Z M6.17292,32.91416 L38.29492,32.91416 C38.33452,32.91416 38.37212,32.90536 38.41132,32.90216 L43.39212,52.29496 L11.15092,52.29496 L6.17292,32.91416 Z M75.53172,55.43816 L72.65812,52.90176 C73.90492,52.17256 75.18892,50.96256 75.88652,49.11856 L78.81932,51.70736 L82.50812,54.96376 C81.82732,55.65936 80.50772,56.67336 78.04612,57.65776 L75.53172,55.43816 Z M70.37252,50.88496 L69.67772,50.27176 L59.63732,41.41096 C59.14252,40.97416 58.85052,40.37096 58.81452,39.71216 C58.77892,39.05376 59.00372,38.42256 59.44732,37.93536 C60.37412,36.91896 61.96692,36.83176 62.99772,37.74216 L70.32532,44.20976 L73.53932,47.04696 C73.14612,49.66056 71.25412,50.59216 70.37252,50.88496 L70.37252,50.88496 Z M84.45892,44.95936 C84.45972,44.95696 84.46012,44.95456 84.46092,44.95176 L95.57212,52.38056 C95.55092,52.39576 95.52852,52.40976 95.50732,52.42496 C95.11052,52.70816 94.68092,52.95536 94.22172,53.15656 L93.38292,53.52336 L93.38292,58.53136 L93.38292,58.60136 L93.12932,58.43896 L90.78532,56.93416 L90.78532,53.82776 L89.69852,53.57816 C86.46452,52.83536 84.20612,50.03856 84.20612,46.77616 C84.20612,46.14696 84.29892,45.53976 84.45892,44.95936 L84.45892,44.95936 Z M114.08332,73.05456 L96.18292,59.92016 L96.18292,55.30656 C96.97012,54.87016 97.68252,54.33416 98.30932,53.72016 C98.67812,53.35936 99.01252,52.96856 99.31852,52.55736 C100.16892,51.41296 100.76772,50.09176 101.05252,48.67816 C101.17732,48.05856 101.24372,47.42256 101.24372,46.77616 C101.24372,45.48216 100.98532,44.24736 100.52092,43.11616 C100.46852,43.49336 100.40052,43.86816 100.31452,44.23816 C100.26332,44.45776 100.16092,44.65056 100.02572,44.81336 C99.92572,44.93336 99.80772,45.03496 99.67492,45.11536 C99.46012,45.24616 99.21212,45.32216 98.95212,45.32216 C98.86612,45.32216 98.77892,45.30856 98.69172,45.29216 C98.67252,45.28816 98.65372,45.28976 98.63452,45.28536 C98.61252,45.28056 98.59372,45.27016 98.57212,45.26416 C98.44932,45.22976 98.33652,45.17856 98.23172,45.11496 C97.72652,44.81096 97.44652,44.21096 97.58732,43.60536 C97.59572,43.57016 97.59932,43.53376 97.60732,43.49856 C97.67652,43.18376 97.72732,42.86576 97.76492,42.54616 C97.78972,42.34256 97.81452,42.13856 97.82612,41.93456 C97.83612,41.74976 97.84012,41.56416 97.83972,41.37896 C97.83852,40.93856 97.80612,40.49736 97.74572,40.05976 C97.73892,40.00896 97.73412,39.95776 97.72652,39.90736 C97.69572,39.71096 97.70972,39.51776 97.75732,39.33736 C96.85652,38.57816 95.81772,37.97416 94.68212,37.57016 C94.78732,37.72176 94.88972,37.87896 94.98572,38.04816 C95.02732,38.12096 95.06252,38.19376 95.10052,38.26576 C95.32212,38.69496 95.48212,39.11896 95.59212,39.52736 C95.64852,39.73656 95.69412,39.94256 95.72732,40.14136 C95.80132,40.58576 95.82332,40.99896 95.81652,41.36416 C95.81212,41.62176 95.79372,41.85536 95.76892,42.05736 C95.74372,42.26616 95.71212,42.44216 95.68292,42.57696 C95.54292,43.23456 94.96212,43.68536 94.31532,43.68536 C94.21852,43.68536 94.12052,43.67536 94.02212,43.65416 C93.93292,43.63496 93.84892,43.60656 93.76812,43.57256 C93.16212,43.31616 92.80212,42.66016 92.94492,41.99336 C92.99852,41.74096 93.06972,41.23616 92.97212,40.63176 C92.93652,40.41256 92.87412,40.17976 92.78452,39.94096 C92.72132,39.77256 92.64812,39.60216 92.55052,39.43056 C92.50012,39.34176 92.44412,39.26416 92.38892,39.18416 C92.17172,38.86576 91.92812,38.60936 91.68052,38.40976 C91.34052,38.13496 91.00692,37.96336 90.75012,37.85696 L90.47972,37.75536 C89.86212,37.52776 89.32092,37.37656 88.88892,37.29536 C87.89932,37.54256 86.96812,37.93416 86.12212,38.45056 C85.76732,38.66696 85.42852,38.90496 85.10532,39.16256 C84.35092,39.00576 83.28452,38.82336 82.39732,38.82336 C81.08732,38.82336 80.60452,39.51576 80.43332,39.92896 C80.13252,40.65496 80.37252,41.50776 81.07492,42.21056 L82.11612,43.14696 C81.66012,44.26976 81.40612,45.49416 81.40612,46.77616 C81.40612,48.35376 81.78092,49.85336 82.45692,51.18336 L79.90932,48.93456 L72.10172,42.04296 L64.85092,35.64296 C62.32732,33.41536 58.21052,34.02376 56.55212,37.24256 C56.32012,37.69336 56.16132,38.18136 56.08092,38.68176 C55.78492,40.54256 56.43172,42.31616 57.78412,43.51016 L70.91932,55.10216 L72.96892,56.91136 L75.90972,59.50656 L73.42052,63.74856 C73.18772,64.01176 72.90732,64.32296 72.59932,64.65576 C71.67692,65.65376 70.50812,66.84056 69.60532,67.49656 C69.59172,67.50616 69.57692,67.51856 69.56292,67.52856 L68.93932,67.94416 L66.57412,69.29976 L46.74772,54.10456 L37.91292,19.70616 C37.71412,18.93376 36.90932,18.47816 36.13732,18.71896 C35.41332,18.94496 35.03132,19.74376 35.22012,20.47816 L37.69492,30.11416 L5.45412,30.11416 L2.84452,19.95376 C2.65172,19.20496 1.88892,18.75336 1.14012,18.94656 C0.39092,19.13856 -0.05988,19.90136 0.13212,20.65056 L28.75092,132.07536 C28.91332,132.70736 29.48212,133.12736 30.10612,133.12736 C30.22132,133.12736 30.33852,133.11296 30.45532,133.08256 C31.20412,132.89056 31.65532,132.12776 31.46292,131.37856 L29.01652,121.85256 L52.47972,121.85256 L53.63572,123.57256 C54.66452,125.10336 56.34412,125.94376 58.07172,125.94376 C58.92732,125.94376 59.79492,125.73736 60.60012,125.30696 L61.03132,125.07616 C61.35492,124.90296 61.65452,124.69936 61.92972,124.47016 L63.41412,130.25016 C63.57652,130.88216 64.14572,131.30216 64.76932,131.30216 C64.93852,131.30216 65.11212,131.27096 65.28252,131.20456 C65.95252,130.94456 66.28892,130.18776 66.11012,129.49176 L63.81652,120.56296 C63.84372,119.63696 63.62972,118.71696 63.17252,117.88256 L63.08972,117.73136 L59.26452,102.83896 L69.09652,97.84256 L69.11532,97.87496 L79.66892,92.23296 L79.76132,92.18376 L80.69092,91.68656 L83.13452,90.38056 L84.17652,89.82336 L85.19892,89.27696 L85.37092,89.18496 L85.75172,88.92776 C86.37092,88.48576 86.86412,88.13416 87.27892,87.83456 C87.36692,87.77096 87.45652,87.70656 87.53772,87.64736 C88.82612,86.66376 90.02132,85.53456 91.18612,84.29856 C91.18612,84.29856 91.15892,84.25896 91.11492,84.19576 C91.11612,84.19456 91.11772,84.19296 91.11852,84.19176 C91.14252,84.22856 91.16252,84.26256 91.18612,84.29856 C92.28212,83.11216 93.29132,81.83456 94.18052,80.48416 L98.41972,73.16896 L103.75932,77.22976 C103.02332,78.28736 101.87732,79.93456 100.86332,81.38736 C100.33212,82.14896 99.99852,83.03936 99.95532,83.96696 C99.86812,85.83256 100.72132,87.50056 102.20412,88.49856 L102.28212,88.55176 C104.51372,90.05416 107.57612,89.47816 109.10932,87.26696 L115.03172,78.72136 C116.30292,76.88736 115.88212,74.37496 114.08332,73.05456 L114.08332,73.05456 Z" id="Fill-7"></path>
            </g>
            <rect id="Rectangle" x="0" y="0" width="200" height="200"></rect>
        </g>
    </g>
</svg>