<?xml version="1.0" encoding="UTF-8"?>
<svg width="200px" height="200px" viewBox="0 0 200 200" version="1.1" xmlns="http://www.w3.org/2000/svg" xmlns:xlink="http://www.w3.org/1999/xlink">
    <!-- Generator: Sketch 63.1 (92452) - https://sketch.com -->
    <title>YC_Icon_Auto_Accidents_Green@3x</title>
    <desc>Created with Sketch.</desc>
    <g id="YC_Icon_Auto_Accidents_Green" stroke="none" stroke-width="1" fill="none" fill-rule="evenodd">
        <g>
            <g id="Group-21" stroke-width="1" fill-rule="evenodd" transform="translate(44.400000, 48.800000)" fill="#0D3F37">
                <path d="M94.02952,21.71628 L78.13312,21.71628 C79.34192,20.14028 81.21472,19.16388 83.22392,19.16388 L95.81432,19.16388 C95.09312,19.90028 94.48552,20.75788 94.02952,21.71628 L94.02952,21.71628 Z M88.56712,36.43868 C88.18592,37.47548 87.24712,38.15668 86.17672,38.17268 L83.03552,38.21908 L71.66112,38.21908 C71.80632,37.96068 71.93472,37.68908 72.04032,37.40268 L74.23392,31.44108 C75.08152,29.13708 75.93032,26.82988 76.78272,24.51628 L92.95352,24.51628 L88.56712,36.43868 Z M65.87432,41.52708 L51.54512,41.52708 C52.17392,41.30948 52.83712,41.18348 53.52072,41.17308 C57.57752,41.11388 61.63392,41.05188 65.69032,40.99028 L66.39992,40.97948 C66.21832,41.15548 66.04192,41.33748 65.87432,41.52708 L65.87432,41.52708 Z M72.76752,71.26268 L73.45312,71.26268 C72.81912,74.54508 70.00192,77.02748 66.62992,77.02748 C63.25792,77.02748 60.44072,74.54508 59.80632,71.26268 L72.76752,71.26268 Z M58.39232,68.46268 L56.96992,68.46268 L53.61632,68.46268 C51.28512,68.46268 49.18992,67.18028 48.04312,65.19668 L58.01112,65.19668 L59.62632,65.19668 L61.36112,65.19668 L64.11352,65.19668 C64.58072,66.43028 65.29232,67.54068 66.18952,68.46268 L59.80672,68.46268 L58.39232,68.46268 Z M47.16152,62.39668 L47.15912,62.39668 C47.15752,62.38028 47.15832,62.36348 47.15672,62.34668 C47.14232,62.16148 47.13312,61.97508 47.13312,61.78788 L47.13312,60.20108 L63.48832,60.20108 L63.48832,60.43188 L63.48832,61.92988 L63.48832,62.39668 L62.54232,62.39668 L60.17792,62.39668 L47.16152,62.39668 Z M61.39872,48.42468 L63.48832,48.42468 L63.48832,50.97748 L61.41272,50.97748 L61.41272,48.44508 L61.39872,48.42468 Z M48.66432,50.97748 L48.66432,48.42228 L50.73192,48.41828 C50.73392,48.41988 50.74032,48.42668 50.74032,48.44508 L50.74032,50.97748 L48.66432,50.97748 Z M47.13232,53.77748 L50.88272,53.77748 C52.34832,53.77748 53.54032,52.57148 53.54032,51.08908 L53.54032,48.44508 C53.54032,46.89028 52.29032,45.62468 50.75432,45.62468 L47.50512,45.62468 C47.66072,45.17268 47.86192,44.73708 48.10952,44.32708 L64.16152,44.32708 C63.99552,44.74628 63.85792,45.17948 63.75192,45.62468 L61.39872,45.62468 C59.86232,45.62468 58.61272,46.89028 58.61272,48.44508 L58.61272,51.08908 C58.61272,52.57148 59.80472,53.77748 61.27032,53.77748 L63.48952,53.77748 L63.48952,57.40108 L47.13232,57.40108 L47.13232,53.77748 Z M89.62312,69.86308 C89.62312,69.38388 89.67112,68.91588 89.75872,68.46268 C90.39312,65.18108 93.21032,62.69908 96.58192,62.69908 C99.95352,62.69908 102.77072,65.18108 103.40472,68.46268 C103.49232,68.91588 103.54032,69.38388 103.54032,69.86308 C103.54032,70.34228 103.49272,70.80988 103.40472,71.26268 C102.77112,74.54508 99.95392,77.02748 96.58192,77.02748 C93.20992,77.02748 90.39272,74.54508 89.75832,71.26268 C89.67112,70.80988 89.62312,70.34228 89.62312,69.86308 L89.62312,69.86308 Z M102.38152,16.36388 L83.22392,16.36388 C79.37912,16.36388 75.88872,18.83188 74.53512,22.51708 L74.49272,22.63148 C73.52912,25.24548 72.56752,27.86068 71.60592,30.47468 L69.41352,36.43388 C69.03032,37.47228 68.08992,38.15348 67.01832,38.16948 L65.64792,38.19068 C61.59192,38.25228 57.53632,38.31388 53.47912,38.37308 C50.86072,38.41228 48.42832,39.55308 46.70272,41.52748 L46.66672,41.52748 L46.24632,42.08708 C45.19952,43.48068 44.55432,45.14028 44.37872,46.89668 C44.34712,47.24228 44.33232,47.54348 44.33232,47.84468 L44.33232,61.78788 C44.33232,62.58388 44.42832,63.37348 44.61832,64.13868 C44.62032,64.14708 44.62312,64.15548 44.62552,64.16348 L44.88312,65.19668 L44.95792,65.19668 C46.32592,68.81548 49.74072,71.26268 53.61632,71.26268 L56.96952,71.26268 C57.63792,76.09668 61.71432,79.82748 66.62992,79.82748 C71.54552,79.82748 75.62152,76.09668 76.29032,71.26268 L86.92112,71.26268 C87.58992,76.09668 91.66632,79.82748 96.58192,79.82748 C101.49752,79.82748 105.57352,76.09668 106.24232,71.26268 L109.43432,71.26268 C110.20752,71.26268 110.83432,70.63628 110.83432,69.86308 L110.83432,69.86268 C110.83432,69.08988 110.20752,68.46268 109.43432,68.46268 L106.24192,68.46268 C105.57312,63.62948 101.49712,59.89908 96.58192,59.89908 C91.66672,59.89908 87.59032,63.62948 86.92152,68.46268 L76.28992,68.46268 L74.86752,68.46268 L73.45312,68.46268 L72.76752,68.46268 C69.50112,68.46268 66.79912,65.95628 66.35912,62.71308 C66.31832,62.40988 66.28952,62.10268 66.28952,61.78788 L66.28952,61.31668 L66.28952,59.90788 L66.28952,47.84468 C66.28952,44.21708 69.15432,41.22388 72.67512,41.17308 L83.07712,41.01908 L85.87112,41.01908 L85.87112,40.97788 L86.21912,40.97268 C88.45712,40.93828 90.41072,39.53828 91.19512,37.40548 L96.32112,23.47228 C97.27112,20.89508 99.70632,19.16388 102.38152,19.16388 L109.43432,19.16388 C110.20752,19.16388 110.83432,18.53748 110.83432,17.76428 L110.83432,17.76388 C110.83432,16.99108 110.20752,16.36388 109.43432,16.36388 L102.38152,16.36388 Z" id="Fill-1"></path>
                <path d="M98.93656,24.10808 L95.23096,36.20728 C94.90936,37.25488 95.09456,38.39048 95.72616,39.24488 C96.26696,39.97688 97.07056,40.39688 97.93096,40.39688 L109.43416,40.39688 C110.20776,40.39688 110.83416,39.77008 110.83416,38.99728 L110.83416,38.99688 C110.83416,38.22368 110.20776,37.59688 109.43416,37.59688 L97.98936,37.59688 C97.92216,37.52008 97.82696,37.29248 97.90816,37.02808 L101.61416,24.92648 C101.70176,24.63968 101.87016,24.51608 101.93696,24.51608 L109.43416,24.51608 C110.20776,24.51608 110.83416,23.88928 110.83416,23.11648 L110.83416,23.11608 C110.83416,22.34288 110.20776,21.71608 109.43416,21.71608 L101.93696,21.71608 C100.57856,21.71608 99.37256,22.67808 98.93656,24.10808" id="Fill-3"></path>
                <path d="M34.24944,75.72292 C34.24944,76.79772 33.37464,77.67212 32.29984,77.67212 L27.32824,77.67212 C26.33584,77.67212 25.52344,76.92412 25.40304,75.96412 L26.33344,75.96412 C30.02384,75.96412 33.02584,72.96332 33.02584,69.27452 L33.02584,67.41532 L33.02584,54.92172 C33.74144,55.21052 34.24944,55.90972 34.24944,56.72772 L34.24944,75.72292 Z M33.02584,52.03972 L33.02584,44.82772 C33.02584,43.82892 32.85184,42.84812 32.50784,41.91252 L24.93384,21.32372 C23.74184,18.08972 20.65824,15.91652 17.26024,15.91652 L1.61944,15.91652 C0.84624,15.91652 0.21944,16.54372 0.21944,17.31652 C0.21944,18.09012 0.84624,18.71652 1.61944,18.71652 L17.26024,18.71652 C19.49064,18.71652 21.51864,20.15332 22.30624,22.29092 L29.87984,42.87852 C30.10944,43.50332 30.22584,44.15932 30.22584,44.82772 L30.22584,46.53692 C28.89144,45.43212 27.18024,44.76692 25.31624,44.76692 L1.61944,44.76692 C0.84624,44.76692 0.21944,45.39412 0.21944,46.16692 C0.21944,46.94052 0.84624,47.56692 1.61944,47.56692 L25.31624,47.56692 C27.85624,47.56692 29.95144,49.50452 30.20104,51.97812 C30.21744,52.14132 30.22584,52.30652 30.22584,52.47372 L30.22584,53.37812 L30.22584,54.77812 L30.22584,63.59892 L25.37864,63.59892 L23.97864,63.59892 L22.57864,63.59892 L1.61944,63.59892 C0.84624,63.59892 0.21944,64.22612 0.21944,64.99892 C0.21944,65.77252 0.84624,66.39892 1.61944,66.39892 L22.57864,66.39892 L23.97864,66.39892 L25.37864,66.39892 L30.22584,66.39892 L30.22584,67.41532 L30.22584,69.27452 C30.22584,71.42292 28.48464,73.16412 26.33664,73.16412 L25.37864,73.16412 L23.97864,73.16412 L22.57864,73.16412 L1.61944,73.16412 C0.84624,73.16412 0.21944,73.79092 0.21944,74.56412 C0.21944,75.33732 0.84624,75.96412 1.61944,75.96412 L22.59104,75.96412 C22.71784,78.47052 24.79064,80.47212 27.32824,80.47212 L32.29984,80.47212 C34.92304,80.47212 37.04944,78.34612 37.04944,75.72252 L37.04944,56.72772 C37.04944,54.35652 35.30024,52.39092 33.02584,52.03972 L33.02584,52.03972 Z" id="Fill-5"></path>
                <path d="M23.84356,40.72372 C24.81676,39.38252 25.08476,37.62092 24.55956,36.01132 L20.83796,24.61492 C20.19396,22.64692 18.46556,21.32492 16.53716,21.32492 L1.61916,21.32492 C0.84636,21.32492 0.21916,21.95172 0.21916,22.72492 C0.21916,23.49852 0.84636,24.12492 1.61916,24.12492 L16.53716,24.12492 C17.25156,24.12492 17.91076,24.67172 18.17676,25.48452 L21.89796,36.88012 C22.14556,37.63932 22.02556,38.46172 21.57716,39.07932 C21.38036,39.35092 20.94676,39.80652 20.25836,39.80652 L1.61916,39.80652 C0.84636,39.80652 0.21916,40.43332 0.21916,41.20652 C0.21916,41.98012 0.84636,42.60652 1.61916,42.60652 L20.25836,42.60652 C21.66876,42.60652 22.97516,41.92012 23.84356,40.72372" id="Fill-7"></path>
                <path d="M20.14748,55.85732 C20.14748,53.77092 21.59548,52.07332 23.37508,52.07332 C23.96788,52.07332 24.52188,52.26492 24.99948,52.59292 C25.39148,52.86212 25.73068,53.22452 25.99508,53.65532 C26.23348,54.04412 26.40948,54.48652 26.50868,54.96532 C26.56828,55.25172 26.60348,55.54932 26.60348,55.85732 C26.60348,57.05652 26.12348,58.12532 25.37868,58.81892 C24.97788,59.19252 24.50108,59.45652 23.97868,59.57252 C23.78308,59.61612 23.58188,59.64132 23.37508,59.64132 C23.09988,59.64132 22.83388,59.59652 22.57868,59.52012 C21.18348,59.10252 20.14748,57.62092 20.14748,55.85732 M23.37508,62.44132 C23.57908,62.44132 23.78028,62.42972 23.97868,62.40812 C24.46548,62.35492 24.93268,62.23212 25.37868,62.05972 C27.71908,61.15452 29.40348,58.71972 29.40348,55.85732 C29.40348,55.48892 29.36868,55.13052 29.31508,54.77812 C29.24108,54.29172 29.12228,53.82252 28.95588,53.37812 C28.76868,52.87692 28.52388,52.40932 28.23508,51.97812 C27.13708,50.34212 25.37068,49.27332 23.37508,49.27332 C20.05148,49.27332 17.34748,52.22692 17.34748,55.85732 C17.34748,59.19252 19.63108,61.94892 22.57868,62.37732 C22.83988,62.41532 23.10468,62.44132 23.37508,62.44132" id="Fill-9"></path>
                <polygon id="Fill-11" points="47.53108 0.53896 38.25028 40.89856 60.08788 7.26536"></polygon>
                <polygon id="Fill-13" points="47.83928 101.8624 57.29248 98.6944 42.03088 71.3728"></polygon>
                <polygon id="Fill-15" points="71.84944 21.66824 65.06664 13.37944 50.26664 35.48384"></polygon>
                <polygon id="Fill-17" points="38.41 0.39092 22.1828 10.58972 36.0372 33.86532"></polygon>
            </g>
            <rect id="Rectangle" x="0" y="0" width="200" height="200"></rect>
        </g>
    </g>
</svg>