<?xml version="1.0" encoding="UTF-8"?>
<svg width="200px" height="200px" viewBox="0 0 200 200" version="1.1" xmlns="http://www.w3.org/2000/svg" xmlns:xlink="http://www.w3.org/1999/xlink">
    <!-- Generator: Sketch 63.1 (92452) - https://sketch.com -->
    <title>YC_Icon_Elder_Care_Green@3x</title>
    <desc>Created with Sketch.</desc>
    <g id="YC_Icon_Elder_Care_Green" stroke="none" stroke-width="1" fill="none" fill-rule="evenodd">
        <g>
            <g id="Group-9" stroke-width="1" fill-rule="evenodd" transform="translate(44.400000, 41.200000)" fill="#0D3F37">
                <path d="M43.95568,40.52764 C44.30248,40.11204 44.70888,39.76284 45.15528,39.48124 C45.96448,38.96924 46.90848,38.68724 47.89288,38.68724 L47.89808,38.68724 C49.09208,38.68804 50.25728,39.11204 51.17808,39.87924 C53.34728,41.69284 53.63848,44.93324 51.82688,47.10244 L43.06448,57.59444 C42.55568,57.38404 42.03928,57.18804 41.51728,57.00364 C41.05568,56.84124 40.58928,56.68844 40.11768,56.54724 C39.65568,56.40884 39.18928,56.27964 38.71808,56.16244 C36.45328,55.59844 34.08968,55.28604 31.65888,55.24964 L39.40408,45.97644 L41.70288,43.22444 L43.95568,40.52764 Z M58.35368,29.78444 L58.35368,44.95604 L65.46768,44.99684 L66.74888,45.00364 L66.86768,45.00444 L68.16688,45.01204 L68.26768,45.01244 L68.75368,45.01564 L68.75368,42.82284 C68.92688,42.88924 69.10048,42.95364 69.27608,43.01444 C70.96368,43.59564 72.75328,43.90244 74.59088,43.90404 L74.60768,43.90404 C76.44968,43.90404 78.24768,43.59244 79.94208,43.00724 L79.93008,55.28684 L79.92848,56.68764 L79.92768,57.29764 L79.92688,58.08684 L79.92608,59.15124 L79.92408,61.00524 L79.91848,66.72524 C79.21528,66.58204 78.49648,66.50964 77.76568,66.50884 L69.40128,66.50084 L67.92528,66.49924 L66.45448,66.49764 L64.94328,66.49604 L60.63368,66.49164 L59.77928,66.49084 L57.85448,66.48884 L55.98208,66.48684 L55.11088,66.48604 C54.60168,65.87244 54.06568,65.28244 53.51128,64.70924 C51.23808,62.36004 48.59888,60.36884 45.68328,58.82724 L53.97608,48.89724 C56.77688,45.54324 56.32688,40.53444 52.97208,37.72964 C51.57848,36.56804 49.82248,35.92084 48.01688,35.89244 C50.11248,33.73964 52.62728,31.99444 55.43728,30.79644 C56.37808,30.39564 57.35208,30.05804 58.35368,29.78444 L58.35368,29.78444 Z M86.03008,34.81604 C85.97808,34.89804 85.92768,34.98124 85.87368,35.06244 C85.82608,35.13484 85.77488,35.20444 85.72568,35.27604 C85.66768,35.36004 85.61088,35.44524 85.55048,35.52804 C85.50648,35.58924 85.45928,35.64844 85.41408,35.70844 C85.34648,35.79844 85.28008,35.88884 85.21008,35.97724 C85.20848,35.97924 85.20728,35.98124 85.20568,35.98324 L85.03608,36.18804 C84.35288,37.01524 83.58248,37.74564 82.74648,38.37764 C82.67088,38.43484 82.59368,38.49044 82.51688,38.54604 C82.46208,38.58564 82.40888,38.62684 82.35368,38.66564 C82.02728,38.89444 81.68968,39.10524 81.34568,39.30324 C81.32288,39.31644 81.30088,39.32964 81.27808,39.34244 C80.86288,39.57844 80.43608,39.79124 79.99848,39.98164 C79.98048,39.98924 79.96288,39.99724 79.94488,40.00484 C79.00168,40.41044 78.01248,40.70924 76.99168,40.89084 C76.21168,41.03004 75.41488,41.10404 74.60768,41.10404 L74.59368,41.10404 C74.09768,41.10364 73.60648,41.07404 73.12048,41.02124 C71.60128,40.85604 70.13808,40.44044 68.78048,39.79124 C68.77128,39.78724 68.76248,39.78244 68.75368,39.77804 L68.75368,39.61844 L68.75368,36.48564 L68.75368,34.74484 L68.75368,32.87724 L68.75368,28.97724 L68.75368,27.57724 L68.75368,27.51284 C69.68088,27.12164 70.51328,26.67284 71.26048,26.17964 C75.95968,23.07604 77.28408,18.24124 77.64448,15.36964 C77.96248,19.13004 79.15648,21.89564 80.68048,23.92044 C80.97568,24.31324 81.28288,24.67764 81.59848,25.01644 C81.94328,25.38644 82.29648,25.72684 82.65528,26.03764 C84.13688,27.32244 85.68928,28.12604 86.94808,28.61884 C87.34888,28.77564 87.72168,28.90364 88.05048,29.00324 C88.04008,29.10124 88.03128,29.19964 88.01888,29.29684 C88.01688,29.31404 88.01368,29.33124 88.01128,29.34844 C87.98888,29.51804 87.96408,29.68724 87.93568,29.85564 C87.92808,29.89844 87.91888,29.94004 87.91128,29.98244 C87.88528,30.12564 87.85928,30.26924 87.82888,30.41124 C87.82448,30.42964 87.81968,30.44804 87.81568,30.46644 C87.77968,30.63164 87.74128,30.79644 87.69888,30.96044 C87.69008,30.99484 87.67928,31.02924 87.67008,31.06364 C87.63088,31.21044 87.59128,31.35724 87.54728,31.50284 C87.52768,31.56724 87.50528,31.63124 87.48448,31.69524 C87.44768,31.81004 87.41248,31.92484 87.37248,32.03844 C87.35048,32.10284 87.32488,32.16604 87.30168,32.22964 C87.26048,32.34204 87.22048,32.45484 87.17648,32.56644 C87.14768,32.63844 87.11608,32.70964 87.08608,32.78124 C87.04408,32.88284 87.00288,32.98524 86.95848,33.08564 C86.92608,33.15804 86.89088,33.22884 86.85728,33.30084 C86.81128,33.39924 86.76688,33.49844 86.71848,33.59604 C86.68328,33.66684 86.64528,33.73604 86.60888,33.80604 C86.55888,33.90284 86.51048,34.00044 86.45768,34.09564 C86.41608,34.17204 86.37088,34.24644 86.32768,34.32204 C86.27728,34.40964 86.22848,34.49844 86.17608,34.58524 C86.12928,34.66284 86.07888,34.73884 86.03008,34.81604 L86.03008,34.81604 Z M70.95568,84.89844 L70.95568,84.77724 L70.95688,83.49884 L70.95848,82.09844 L70.95848,81.97724 L68.15848,81.97444 L62.88728,81.96924 L61.94808,81.96844 C61.34008,77.61804 59.83328,73.55684 57.61808,69.97844 L57.62248,69.97844 L61.14168,69.98204 L64.74008,69.98564 L67.68568,69.98804 L69.22728,69.98964 L70.78968,69.99124 L76.69688,69.99724 C77.48368,69.99804 78.24528,70.14084 78.97968,70.41364 C79.05368,70.44124 79.12888,70.46284 79.20248,70.49324 C80.01168,70.82004 80.74168,71.30644 81.37248,71.93844 C81.57408,72.14044 81.75648,72.35644 81.92888,72.57964 C82.19848,72.92924 82.43568,73.30084 82.63008,73.69924 C83.07888,74.61204 83.30568,75.59404 83.3048821,76.61844 C83.30448,76.74644 83.29488,78.25764 83.27968,80.60924 C83.27648,81.06884 83.27328,81.56044 83.27008,82.08004 C83.26688,82.54164 83.26408,83.02524 83.26048,83.52844 C83.25728,83.98004 83.25448,84.44764 83.25128,84.92804 C83.20488,91.93484 83.13888,101.81484 83.09568,108.23644 C83.09448,109.32924 82.79888,110.40244 82.24128,111.34004 C82.09768,111.58124 81.93968,111.80884 81.76928,112.02404 C81.33928,112.56644 80.82728,113.02204 80.25608,113.38244 C79.30488,113.98164 78.18928,114.31244 77.00808,114.31244 C73.65448,114.30884 70.92928,111.57804 70.93248,108.22444 L70.95568,84.89844 Z M93.57848,108.13084 L93.57608,108.18884 L93.57608,108.24724 C93.57448,109.48444 93.20008,110.63524 92.56128,111.59604 C91.47008,113.23724 89.60528,114.32284 87.48848,114.32284 C86.85128,114.32204 86.22688,114.21844 85.63448,114.02684 C85.14648,113.86924 84.68368,113.64604 84.25168,113.37324 C84.39048,113.17764 84.52448,112.97844 84.64768,112.77124 C85.43768,111.44364 85.89408,109.89524 85.89568,108.23924 C85.89568,108.23924 85.98928,94.30564 86.05128,84.93524 C86.05448,84.45524 86.05728,83.98804 86.06048,83.53524 C86.06208,83.28524 86.06368,83.04044 86.06528,82.80004 C86.06848,82.30124 86.07208,81.82204 86.07488,81.36844 C86.09288,78.62444 86.10448,76.76884 86.10488,76.62084 C86.10608,75.12884 85.75928,73.71844 85.14248,72.46364 C84.69728,71.55004 84.10008,70.72004 83.39408,70.00364 L88.24288,70.00884 C90.01048,70.01044 91.67088,70.70004 92.91888,71.95044 C94.16648,73.20044 94.85248,74.86244 94.8508828,76.62964 C94.85048,77.01084 94.77408,79.09964 94.65408,82.15564 C94.63648,82.60284 94.61808,83.06964 94.59848,83.55564 C94.59808,83.57004 94.59728,83.58524 94.59688,83.60004 C94.57888,84.05284 94.56008,84.52004 94.54048,85.00284 C94.27248,91.67044 93.88168,101.00844 93.57848,108.13084 L93.57848,108.13084 Z M97.62928,60.87164 C93.33088,57.86924 88.23968,55.92724 82.72968,55.42324 L82.73888,46.17964 L95.89368,57.58964 C96.88128,58.44804 97.48448,59.62124 97.62928,60.87164 L97.62928,60.87164 Z M31.16008,114.57244 C15.57328,114.55724 2.90528,101.86404 2.92086561,86.27724 C2.93448,72.34924 13.08408,60.75204 26.36888,58.45764 C26.45288,58.44284 26.53608,58.42644 26.62048,58.41244 C27.03928,58.34404 27.46128,58.28684 27.88608,58.23684 C27.89048,58.23644 27.89528,58.23604 27.89968,58.23564 C28.41928,58.17484 28.94208,58.12684 29.47008,58.09484 L29.47008,58.09484 C30.03888,58.06084 30.61048,58.03764 31.18768,58.03764 L31.21648,58.03764 C33.81328,58.04044 36.32568,58.40204 38.71528,59.06324 C39.18688,59.19364 39.65328,59.33604 40.11488,59.49004 C40.46928,59.60844 40.82208,59.73124 41.17008,59.86324 C41.28568,59.90684 41.39928,59.95404 41.51448,59.99964 C41.85568,60.13404 42.19408,60.27284 42.52888,60.41964 C42.98528,60.62044 43.43488,60.83444 43.87848,61.05804 C46.66288,62.46324 49.18528,64.31284 51.34928,66.51724 C51.56088,66.73244 51.76888,66.95084 51.97328,67.17244 C52.18768,67.40524 52.39528,67.64404 52.60168,67.88404 C52.79768,68.11124 52.99208,68.34004 53.18088,68.57364 C53.37048,68.80804 53.55728,69.04444 53.73888,69.28524 C53.77008,69.32564 53.80288,69.36444 53.83328,69.40524 C53.97288,69.59204 54.10448,69.78484 54.23928,69.97484 C54.39888,70.19964 54.55928,70.42284 54.71248,70.65244 C55.00168,71.08604 55.27648,71.52884 55.54208,71.97844 C57.32408,74.99604 58.56488,78.36884 59.12168,81.96564 C59.19328,82.42844 59.25328,82.89564 59.30208,83.36604 C59.35008,83.82924 59.38648,84.29604 59.41168,84.76564 C59.43968,85.28524 59.4556872,85.80684 59.4556872,86.33324 C59.45048,91.56884 58.00848,96.47244 55.51168,100.68044 C55.24168,101.13484 54.96288,101.58284 54.66888,102.02044 C54.38888,102.43724 54.09968,102.84724 53.79848,103.24804 C48.63608,110.11924 40.42088,114.57244 31.18888,114.57244 L31.16008,114.57244 Z M57.22008,103.25324 C60.39528,98.38684 62.24928,92.58004 62.25568,86.33604 C62.25608,85.81044 62.24288,85.28764 62.21768,84.76844 L62.56088,84.76884 C62.72768,84.83924 62.91088,84.87924 63.10368,84.87964 L68.15568,84.89164 L68.13248,108.22164 C68.13088,109.79124 68.53768,111.26524 69.25048,112.54524 C64.44208,110.58924 60.28728,107.35244 57.22008,103.25324 L57.22008,103.25324 Z M96.30808,109.32244 C96.35088,108.97044 96.37568,108.61324 96.37608,108.25004 C96.37608,108.25004 97.64888,78.33444 97.65088,76.63284 C97.65328,74.03204 96.60408,71.67924 94.90048,69.97204 C94.63968,69.71084 94.36208,69.46684 94.07208,69.23724 C93.42168,68.72244 92.70328,68.29044 91.93008,67.96044 C91.21088,67.65364 90.44568,67.43444 89.64728,67.31444 C89.19008,67.24564 88.72248,67.20924 88.24568,67.20884 L87.05488,67.20764 L82.71768,67.20324 L82.72168,63.43844 L82.72328,61.58444 L82.72528,59.73084 L82.72688,58.23124 C88.07448,58.77124 92.98328,60.81124 97.03328,63.91804 C97.40688,64.20444 97.77248,64.50044 98.13088,64.80444 C98.49408,65.11284 98.84888,65.43084 99.19608,65.75644 C104.69768,70.92324 108.14088,78.25684 108.132495,86.38164 C108.12328,95.82404 103.45208,104.19244 96.30808,109.32244 L96.30808,109.32244 Z M100.31408,62.97564 C100.85528,60.19444 99.88648,57.34924 97.72928,55.47524 L86.09528,45.38484 L90.88488,45.41564 L90.88488,28.71964 C90.91088,28.34764 90.92808,27.97404 90.92848,27.59964 C90.92888,27.01404 90.89928,26.43364 90.83968,25.85884 C90.81728,25.64364 90.79048,25.42924 90.75968,25.21564 C90.54368,23.72044 90.12168,22.27004 89.49648,20.88244 C89.49568,20.88084 89.49488,20.87964 89.49448,20.87844 L88.87968,19.51364 L88.81128,19.55044 C85.93728,14.47924 80.52368,11.26804 74.62328,11.26204 L74.60648,11.26204 C72.33368,11.26204 70.13368,11.72724 68.10928,12.60564 C67.43568,9.11164 64.40888,0.04564 51.16368,0.03284 L51.16248,0.03284 C50.38968,0.03284 49.76328,0.65844 49.76248,1.43124 C49.76168,2.20444 50.38768,2.83204 51.16088,2.83284 C51.23168,2.83284 51.29688,2.83724 51.36688,2.83764 C64.49608,2.95964 65.44248,13.19964 65.49688,14.03684 C64.63808,14.61724 63.82728,15.28204 63.07728,16.03044 C60.14848,18.95324 58.46968,22.79404 58.30288,26.90604 C57.17768,27.18004 56.08288,27.52804 55.02208,27.94484 C50.15208,29.85684 46.02088,33.21204 43.13568,37.47204 C42.65048,37.83604 42.20328,38.25684 41.80608,38.73324 L28.91888,54.16204 C28.49328,54.54804 28.10968,54.97084 27.77448,55.42844 C12.23648,57.12724 0.13688,70.28124 0.12086405,86.27444 C0.10368,103.43244 13.99928,117.35564 31.15728,117.37244 L31.18888,117.37244 C41.03968,117.37244 49.81528,112.78124 55.50768,105.62644 C61.19168,112.80044 69.97048,117.41124 79.83448,117.42084 L79.86608,117.42084 C81.79768,117.42084 83.68528,117.23564 85.51968,116.89844 C86.15248,117.04204 86.80928,117.12204 87.48568,117.12284 L87.49448,117.12284 C90.29448,117.12284 92.78968,115.82684 94.41768,113.80244 C104.23088,108.58924 110.92088,98.27204 110.932497,86.38484 C110.94208,77.04884 106.82688,68.67724 100.31408,62.97564 L100.31408,62.97564 Z" id="Fill-1"></path>
                <path d="M5.2584,3.00144 C5.408,3.00144 5.548,3.00984 5.6944,3.01224 C18.6812,3.25424 19.5516,13.50384 19.5956,14.22504 L19.562,48.05264 L19.5576,52.58344 C19.5568,53.35704 20.1832,53.98424 20.9564,53.98504 L20.9576,53.98504 C21.7304,53.98504 22.3568,53.35944 22.3576,52.58664 L22.3956,14.18944 L22.3944,14.12544 C22.388,13.98624 21.5856,0.21784 5.2612,0.20144 L5.2596,0.20144 C4.4872,0.20144 3.8604,0.82704 3.85959923,1.59984 C3.8588,2.37344 4.4852,3.00064 5.2584,3.00144" id="Fill-3"></path>
                <path d="M32.50312,16.55928 L53.36752,16.58008 L59.20392,16.58568 L59.20512,16.58568 C59.97792,16.58568 60.6043192,15.96008 60.6051208,15.18728 C60.60592,14.41408 59.97992,13.78648 59.20672,13.78568 L52.95992,13.77968 L32.50592,13.75928 L32.50432,13.75928 C31.73192,13.75928 31.10512,14.38488 31.1043192,15.15768 C31.10352,15.93128 31.72992,16.55848 32.50312,16.55928" id="Fill-5"></path>
            </g>
            <rect id="Rectangle" x="0" y="0" width="200" height="200"></rect>
        </g>
    </g>
</svg>