<?xml version="1.0" encoding="UTF-8"?>
<svg width="200px" height="200px" viewBox="0 0 200 200" version="1.1" xmlns="http://www.w3.org/2000/svg" xmlns:xlink="http://www.w3.org/1999/xlink">
    <!-- Generator: Sketch 63.1 (92452) - https://sketch.com -->
    <title>YC_Icon_Workplace_Discrimination_Green@3x</title>
    <desc>Created with Sketch.</desc>
    <g id="YC_Icon_Workplace_Discrimination_Green" stroke="none" stroke-width="1" fill="none" fill-rule="evenodd">
        <g>
            <g id="Group-9" stroke-width="1" fill-rule="evenodd" transform="translate(28.400000, 33.600000)" fill="#0D3F37">
                <path d="M41.1256,28.97828 L36.3076,28.97828 L36.3076,28.97908 L27.5068,28.97908 L27.5068,26.27828 C31.4752,24.27988 34.1956,20.16828 34.1956,15.42708 C34.1956,15.04588 34.1784,14.66788 34.142,14.29508 C33.5716,8.12028 28.376,3.28308 22.0516,3.28308 C15.346,3.28308 9.908,8.72148 9.908,15.42708 C9.908,15.76828 9.922,16.10708 9.9504,16.44308 C10.362,21.40988 13.7656,25.53308 18.3576,26.99788 L18.3576,28.97908 L8.1484,28.97908 L8.1484,28.97828 L4.4868,28.97828 C2.038,28.97828 0.0528,30.96348 0.0528,33.41228 L0.0528,71.74508 C0.0528,73.98028 1.8652,75.79268 4.1008,75.79268 C4.6632,75.79268 5.1988,75.67748 5.6856,75.46988 L5.8836,75.79348 L9.8448,124.85268 C10.0796,127.75948 12.5072,129.99908 15.4236,129.99908 C18.404,129.99908 20.82,127.58268 20.82,124.60268 L20.82,75.79348 L23.8348,75.79348 L27.7924,124.80708 C28.0292,127.73948 30.4784,129.99908 33.4204,129.99908 C36.3756,129.99908 38.7716,127.60308 38.7716,124.64788 L38.7716,75.47028 C39.258,75.67788 39.7932,75.79268 40.3556,75.79268 C42.5912,75.79268 44.4032,73.98028 44.4032,71.74508 L44.4032,32.25588 C44.4032,30.44548 42.9356,28.97828 41.1256,28.97828" id="Fill-1"></path>
                <path d="M95.1174,71.30952 C95.1174,71.92312 94.7978,72.46152 94.3182,72.77312 C94.0442,72.95112 93.7202,73.05672 93.3702,73.05672 C93.213,73.05672 93.0634,73.02872 92.9182,72.98952 C92.2154,72.79872 91.6782,72.18432 91.627,71.42752 L88.8186,29.92112 L88.8174,29.90792 L90.417,29.90792 C91.4234,29.90792 92.3542,30.22832 93.1194,30.76832 C94.3258,31.62032 95.1174,33.02192 95.1174,34.60792 L95.1174,71.30952 Z M83.8546,21.37512 L83.8546,14.27152 C85.2446,13.73112 86.5974,12.65232 87.895,11.03912 C88.009,10.89672 88.1182,10.75512 88.2246,10.61432 C88.4166,11.37792 88.5198,12.17592 88.5198,12.99632 C88.5198,16.48112 86.715,19.61432 83.8546,21.37512 L83.8546,21.37512 Z M68.961,73.05672 L67.561,73.05672 L66.161,73.05672 L64.5738,73.05672 L64.0638,73.05672 L64.0638,72.97872 L64.0638,31.15512 C64.0638,30.46752 64.6234,29.90792 65.3114,29.90792 L66.161,29.90792 L67.561,29.90792 L68.961,29.90792 L72.9926,29.90792 L75.7926,29.90792 L75.7926,29.85712 L79.723,29.85712 L79.723,29.90792 L82.523,29.90792 L86.011,29.90792 L88.8334,71.61672 C88.8678,72.12592 88.9898,72.60872 89.1762,73.05672 L68.961,73.05672 Z M61.2638,31.33872 L61.2638,50.63432 L60.1718,34.49832 C60.0926,33.32632 60.4818,32.20952 61.2638,31.33872 L61.2638,31.33872 Z M67.3214,129.50272 L66.9426,129.50272 C65.3554,129.50272 64.0638,128.21152 64.0638,126.62432 L64.0638,76.09112 L73.9878,76.09112 L69.8662,127.15512 C69.7598,128.47152 68.6422,129.50272 67.3214,129.50272 L67.3214,129.50272 Z M85.8886,129.50272 C84.1618,129.50272 82.7574,128.09792 82.7574,126.37112 L82.7574,76.09112 L92.681,76.09112 L88.5698,127.02952 C88.4578,128.41632 87.2798,129.50272 85.8886,129.50272 L85.8886,129.50272 Z M90.417,27.10792 L88.5514,27.10792 L85.8218,27.10792 L83.8546,27.10792 L83.8546,24.52392 C88.253,22.54472 91.3198,18.13152 91.3198,12.99632 C91.3198,6.06352 85.737,0.43152 78.8234,0.35072 C78.7742,0.35072 78.7262,0.35072 78.6774,0.35072 C72.343,0.35072 66.971,5.13392 66.1418,11.31632 L65.9782,11.31632 L65.9782,27.10792 L65.3114,27.10792 L64.4622,27.10792 C60.3522,27.10792 57.1006,30.58632 57.3782,34.68712 L59.8666,71.45712 C59.9474,72.65032 60.4694,73.71192 61.2638,74.49512 L61.2638,75.85672 L61.2638,126.62432 C61.2638,129.76032 63.8062,132.30272 66.9426,132.30272 L67.3214,132.30272 C70.1106,132.30272 72.4326,130.16072 72.6574,127.38072 L76.8158,75.85672 L79.9574,75.85672 L79.9574,126.37112 C79.9574,129.64712 82.6126,132.30272 85.8886,132.30272 C88.749,132.30272 91.1302,130.10632 91.3602,127.25472 L95.509,75.85672 L95.7182,75.19832 C97.0346,74.40152 97.9174,72.96032 97.9174,71.30952 L97.9174,34.60792 C97.9174,30.46552 94.559,27.10792 90.417,27.10792 L90.417,27.10792 Z" id="Fill-3"></path>
                <path d="M133.901,29.90776 L135.501,29.90776 C136.507,29.90776 137.4378,30.22816 138.203,30.76856 C139.4094,31.62016 140.201,33.02216 140.201,34.60776 L140.201,71.30936 C140.201,71.92336 139.8814,72.46136 139.4018,72.77336 C139.1278,72.95096 138.8038,73.05656 138.4538,73.05656 C138.2966,73.05656 138.147,73.02896 138.0018,72.98936 C137.299,72.79896 136.7618,72.18456 136.7106,71.42736 L133.9022,29.92136 L133.901,29.90776 Z M114.0446,73.05656 L112.6446,73.05656 L111.2446,73.05656 L109.6574,73.05656 L109.1474,73.05656 L109.1474,72.97896 L109.1474,31.15536 C109.1474,30.46736 109.7074,29.90776 110.395,29.90776 L111.2446,29.90776 L112.6446,29.90776 L114.0446,29.90776 L118.0762,29.90776 L120.8762,29.90776 L120.8762,29.85696 L124.8066,29.85696 L124.8066,29.90776 L127.6066,29.90776 L131.0946,29.90776 L133.917,71.61656 C133.9518,72.12576 134.0734,72.60856 134.2598,73.05656 L114.0446,73.05656 Z M128.8318,21.43736 L128.8318,12.88856 C130.9526,11.87536 132.2466,10.72136 133.0326,9.70776 C133.401,10.73816 133.6034,11.84496 133.6034,12.99616 C133.6034,16.52376 131.7534,19.68936 128.8318,21.43736 L128.8318,21.43736 Z M106.3474,31.33896 L106.3474,50.63416 L105.2558,34.49816 C105.1762,33.32656 105.5654,32.20936 106.3474,31.33896 L106.3474,31.33896 Z M112.317,129.50296 C110.5694,129.50296 109.1474,128.08096 109.1474,126.33336 L109.1474,76.09096 L119.0714,76.09096 L114.957,127.06696 C114.8466,128.43296 113.687,129.50296 112.317,129.50296 L112.317,129.50296 Z M131.1402,129.50296 L130.7738,129.50296 C129.1566,129.50296 127.841,128.18696 127.841,126.56976 L127.841,76.09096 L137.7646,76.09096 L133.6398,127.19656 C133.5354,128.48976 132.4374,129.50296 131.1402,129.50296 L131.1402,129.50296 Z M135.501,27.10776 L133.6354,27.10776 L130.9054,27.10776 L128.8318,27.10776 L128.8318,24.57216 C133.2874,22.61696 136.4034,18.17296 136.4034,12.99616 C136.4034,6.06336 130.8206,0.43136 123.907,0.35056 C123.8578,0.35056 123.8098,0.35056 123.761,0.35056 C117.4266,0.35056 112.055,5.13376 111.2254,11.31616 L111.0914,11.31616 L111.0914,27.10776 L110.395,27.10776 L109.5458,27.10776 C105.4358,27.10776 102.1846,30.58656 102.4618,34.68696 L104.9502,71.45736 C105.031,72.65016 105.5534,73.71216 106.3474,74.49496 L106.3474,75.85656 L106.3474,126.33336 C106.3474,129.63016 109.0202,132.30296 112.317,132.30296 C115.1562,132.30296 117.5194,130.12256 117.7478,127.29256 L121.8994,75.85656 L125.041,75.85656 L125.041,126.56976 C125.041,129.73616 127.6074,132.30296 130.7738,132.30296 L131.1402,132.30296 C133.9058,132.30296 136.2082,130.17896 136.4306,127.42176 L140.5926,75.85656 L140.8018,75.19816 C142.1182,74.40136 143.001,72.96056 143.001,71.30936 L143.001,34.60776 C143.001,30.46576 139.6426,27.10776 135.501,27.10776 L135.501,27.10776 Z" id="Fill-5"></path>
            </g>
            <rect id="Rectangle" x="0" y="0" width="200" height="200"></rect>
        </g>
    </g>
</svg>