<?xml version="1.0" encoding="UTF-8"?>
<svg width="200px" height="200px" viewBox="0 0 200 200" version="1.1" xmlns="http://www.w3.org/2000/svg" xmlns:xlink="http://www.w3.org/1999/xlink">
    <!-- Generator: Sketch 63.1 (92452) - https://sketch.com -->
    <title>YC_Icon_Sexual_Harassment_Green@3x</title>
    <desc>Created with Sketch.</desc>
    <g id="YC_Icon_Sexual_Harassment_Green" stroke="none" stroke-width="1" fill="none" fill-rule="evenodd">
        <g>
            <g id="Group-5" stroke-width="1" fill-rule="evenodd" transform="translate(44.000000, 46.400000)" fill="#0D3F37">
                <path d="M105.0346,50.7152 L104.2126,51.9016 L103.4202,53.0452 L102.6182,54.2024 L96.3482,63.2528 L94.9482,65.2736 L93.5482,67.294 L88.9862,73.878 C87.0086,76.7324 83.0778,77.4456 80.223,75.468 C77.3686,73.4904 76.6554,69.5592 78.629,66.71 L89.4726,51.2188 L90.4526,49.8184 L91.0198,49.008 L91.4322,48.4188 L93.075,46.072 L93.5338,45.416 L94.813,43.5888 L94.813,42.76 L94.813,38.8632 C100.4582,39.502 103.299,41.8372 103.3262,41.86 L103.4446,41.952 C104.8274,42.9096 105.7542,44.3492 106.0546,46.0044 C106.355,47.6592 105.9926,49.3324 105.0346,50.7152 M58.5326,57.8216 C58.6786,59.3216 58.333,60.7908 57.5662,62.0568 C57.3938,62.3408 57.2074,62.6184 56.9926,62.8796 L56.9538,62.9288 C56.8634,63.0496 56.7714,63.1712 56.6806,63.292 C56.5094,63.5196 56.3386,63.7476 56.1662,63.976 C55.9662,64.2412 55.765,64.5072 55.5638,64.7732 C55.2258,65.22 54.8858,65.6676 54.545,66.1156 C54.4178,66.2824 54.2914,66.4492 54.1638,66.6164 C53.699,67.2256 53.2318,67.8344 52.7638,68.4424 C48.4562,74.04 44.0662,79.5296 40.4386,83.7968 C39.957,84.3632 39.491,84.9048 39.0386,85.4256 C38.553,85.984 38.0858,86.5136 37.6386,87.0132 C35.2226,89.7112 33.3918,91.5104 32.539,91.8928 C30.8942,92.6308 29.051,92.6724 27.3498,92.0108 C25.5974,91.3292 24.2218,90.002 23.4762,88.274 L9.8406,56.646 C9.4658,55.7736 9.2754,54.8544 9.2754,53.9136 C9.2754,51.1488 10.9142,48.6564 13.4498,47.5636 C14.3382,47.1808 15.263,47 16.1742,47 C18.8514,47 21.4058,48.5644 22.5318,51.1736 L31.5394,72.0688 L37.917,64.3152 L39.8742,61.9352 L43.1186,57.9904 L45.9866,54.5036 L46.3182,54.1004 C47.5474,52.6068 49.3246,51.7172 51.2406,51.6028 C51.3794,51.5944 51.517,51.5796 51.657,51.5796 C52.0294,51.5796 52.399,51.6132 52.7638,51.6728 C52.8402,51.6852 52.9154,51.7008 52.9914,51.716 C53.3918,51.7956 53.7838,51.9108 54.1638,52.0592 C54.6546,52.2512 55.1262,52.494 55.5638,52.794 C55.729,52.9076 55.8902,53.028 56.0458,53.1564 C56.0878,53.1908 56.125,53.23 56.1662,53.2652 C56.3474,53.4216 56.5182,53.5856 56.6806,53.7568 C57.0194,54.1148 57.3146,54.5048 57.5662,54.9208 C58.0942,55.7928 58.431,56.776 58.5326,57.8216 M43.427,30.772 C43.1142,31.2552 42.7782,31.7224 42.421,32.172 C42.033,32.6596 41.621,33.1276 41.1842,33.572 C37.9826,36.8272 33.5318,38.8512 28.6158,38.8512 C24.6042,38.8512 20.903,37.5024 17.9366,35.238 C17.5154,34.9164 17.1078,34.578 16.7174,34.2204 C16.351,33.8852 16.0002,33.5336 15.663,33.1688 C12.7574,30.0236 10.9774,25.8232 10.9774,21.2132 C10.9774,11.488 18.8902,3.5752 28.6158,3.5752 C38.3414,3.5752 46.2538,11.488 46.2538,21.2132 C46.2538,24.7344 45.2122,28.0152 43.427,30.772 M106.2698,53.8484 L107.2006,52.5056 C108.6046,50.4792 109.2454,47.9832 108.8186,45.5556 C108.3986,43.1636 107.0742,41.0808 105.0914,39.6868 C104.565,39.2568 101.1658,36.6764 94.813,36.0408 L94.813,34.2004 L94.813,24.7204 C95.0994,23.3344 95.2646,21.884 95.2678,20.378 C95.2678,12.536 90.7366,5.736 84.145,2.4476 C84.085,2.4128 84.025,2.3748 83.965,2.342 C82.3162,1.446 80.5902,0.9348 78.8786,0.6848 C77.6842,0.4632 76.4546,0.3416 75.1958,0.3416 C74.643,0.3416 74.0882,0.3652 73.5514,0.4112 C70.5414,0.6612 67.725,1.592 65.2422,3.0372 C65.1002,3.1044 65.0034,3.1524 64.9706,3.1692 L64.7782,3.2668 L64.6514,3.3912 C58.9706,6.964 55.1946,13.3024 55.1946,20.378 C55.1946,20.5484 55.1974,20.7156 55.2006,20.8948 C55.2326,22.1544 55.3862,23.3936 55.6494,24.5992 L55.6494,30.772 L46.6734,30.772 C48.3746,27.5708 49.2538,23.8692 49.0154,19.9472 C48.399,9.8196 40.2714,1.5756 30.1522,0.832 C18.1918,-0.0472 8.1774,9.4356 8.1774,21.2132 C8.1774,26.2892 10.0418,30.9348 13.1158,34.5124 C5.4922,39.102 0.3802,47.4572 0.3802,56.986 L0.3802,105.312 C0.3802,106.0852 1.007,106.712 1.7802,106.712 C2.5534,106.712 3.1802,106.0852 3.1802,105.312 L3.1802,56.986 C3.1802,48.23 8.0146,40.586 15.1514,36.57 C18.7506,39.7292 23.4614,41.6512 28.6158,41.6512 C35.2438,41.6512 41.143,38.4772 44.8794,33.572 L55.6494,33.572 L55.6494,48.8188 L50.8186,48.8192 C48.223,49.0416 45.8294,50.288 44.1558,52.3216 L43.8866,52.6488 C42.7546,53.7088 41.7422,54.9368 40.8802,56.3044 L32.2934,66.7444 L25.1026,50.0648 C22.983,45.1508 17.2586,42.8748 12.3422,44.992 C8.7782,46.528 6.4754,50.03 6.4754,53.9136 C6.4754,55.2368 6.7422,56.528 7.2686,57.7532 L20.9054,89.3832 C21.9502,91.8052 23.8782,93.6648 26.3346,94.6204 C27.4666,95.0604 28.6438,95.28 29.8162,95.28 C31.1354,95.28 32.449,95.002 33.6846,94.4476 C34.343,94.1524 35.4146,93.4276 37.6386,91.132 L37.6386,105.312 C37.6386,106.0852 38.2654,106.712 39.0386,106.712 C39.8118,106.712 40.4386,106.0852 40.4386,105.312 L40.4386,88.0832 C42.431,85.8256 44.995,82.7688 48.329,78.608 C49.8746,76.6796 51.3846,74.7624 52.7638,72.9936 L52.7638,105.312 C52.7638,106.0852 53.3906,106.712 54.1638,106.712 C54.937,106.712 55.5638,106.0852 55.5638,105.312 L55.5638,69.3768 C55.7718,69.1064 55.9726,68.8448 56.1662,68.5916 C56.6906,67.908 57.1614,67.2912 57.5662,66.7592 C58.2194,65.9004 58.703,65.2608 58.9662,64.9116 C59.073,64.7704 59.1442,64.6752 59.1758,64.6336 C60.8082,62.6352 61.5694,60.1212 61.3194,57.5504 C61.1202,55.5032 60.2966,53.6164 58.9662,52.1016 C58.6934,51.7908 58.3994,51.496 58.085,51.2188 L58.9662,51.2188 L71.4142,51.2188 L71.4142,49.008 L71.4142,31.568 C76.813,29.4428 81.1658,25.1416 83.4378,19.7148 C84.7194,22.6356 87.5062,24.6292 90.647,24.6292 C90.8418,24.6292 91.0374,24.622 91.2342,24.6064 C91.4902,24.586 91.7426,24.5488 91.993,24.5028 C90.6534,30.3848 86.7418,35.1272 83.811,36.9444 L83.149,37.3552 L83.149,49.008 L83.149,51.2188 L86.055,51.2188 L76.3314,65.11 C73.4746,69.2336 74.505,74.9124 78.6286,77.7696 C80.2054,78.862 82.0094,79.3864 83.7966,79.386 C86.6826,79.386 89.5238,78.0192 91.2878,75.4728 L93.5482,72.2104 L93.5482,105.312 C93.5482,106.0852 94.175,106.712 94.9482,106.712 C95.7214,106.712 96.3482,106.0852 96.3482,105.312 L96.3482,68.1692 L104.633,56.2116 C107.127,59.2236 108.6734,63.3864 108.6734,67.9792 L108.6734,105.312 C108.6734,106.0852 109.3002,106.712 110.0734,106.712 C110.8466,106.712 111.4734,106.0852 111.4734,105.312 L111.4734,67.9792 C111.4734,62.4152 109.4698,57.3932 106.2698,53.8484" id="Fill-1"></path>
            </g>
            <rect id="Rectangle" x="0" y="0" width="200" height="200"></rect>
        </g>
    </g>
</svg>