<?xml version="1.0" encoding="UTF-8"?>
<svg width="200px" height="200px" viewBox="0 0 200 200" version="1.1" xmlns="http://www.w3.org/2000/svg" xmlns:xlink="http://www.w3.org/1999/xlink">
    <!-- Generator: Sketch 63.1 (92452) - https://sketch.com -->
    <title>YC_Icon_Health_Medical_Green@3x</title>
    <desc>Created with Sketch.</desc>
    <g id="YC_Icon_Health_Medical_Green" stroke="none" stroke-width="1" fill="none" fill-rule="evenodd">
        <g>
            <g id="Group-23" stroke-width="1" fill-rule="evenodd" transform="translate(43.200000, 52.000000)" fill="#0D3F37">
                <path d="M86.10452,84.84468 C86.07452,84.98268 86.03572,85.11828 85.98732,85.24988 C85.97972,85.26948 85.97172,85.28868 85.96412,85.30828 C85.91252,85.44028 85.85252,85.56908 85.78292,85.69268 C85.77372,85.70908 85.76332,85.72468 85.75412,85.74068 C85.68092,85.86508 85.60012,85.98468 85.51052,86.09748 C85.50012,86.10988 85.48972,86.12148 85.47972,86.13388 C85.38572,86.24788 85.28452,86.35588 85.17452,86.45548 C85.16532,86.46348 85.15612,86.47068 85.14692,86.47868 C85.03252,86.57988 84.91092,86.67388 84.78012,86.75708 C84.77492,86.76068 84.76852,86.76388 84.76292,86.76748 C84.62732,86.85308 84.48412,86.92868 84.33332,86.99228 C83.65972,87.27588 82.91012,87.30788 82.22292,87.08228 C81.39532,86.81028 80.72652,86.19308 80.38772,85.38788 L77.09452,77.56988 C76.92012,76.24468 77.66692,74.93068 78.91132,74.40748 C79.58572,74.12388 80.33452,74.09188 81.02092,74.31748 C81.84892,74.58948 82.51812,75.20668 82.85692,76.01188 L86.14612,83.81988 L86.15012,83.82988 C86.15132,83.84028 86.15012,83.85068 86.15172,83.86148 C86.16892,84.00588 86.17572,84.14988 86.17172,84.29308 C86.17092,84.31508 86.17012,84.33708 86.16892,84.35948 C86.16212,84.50148 86.14532,84.64228 86.11812,84.78028 C86.11372,84.80188 86.10932,84.82308 86.10452,84.84468 M88.88412,83.19668 L88.88412,83.19508 L88.85692,83.04228 L88.83612,82.99388 C88.76012,82.64068 88.65812,82.29268 88.51772,81.96108 L81.93932,66.34428 C81.28572,64.79188 79.99452,63.60108 78.39692,63.07628 C77.07012,62.64028 75.62452,62.69988 74.32772,63.24508 C72.89612,63.84788 71.78492,64.97108 71.19972,66.40868 C70.61412,67.84668 70.62452,69.42708 71.22852,70.85788 L77.80692,86.47428 C78.46012,88.02628 79.75092,89.21748 81.34892,89.74228 C81.93572,89.93508 82.54532,90.03108 83.15492,90.03108 C83.92492,90.03108 84.69532,89.87788 85.41852,89.57348 C85.57652,89.50708 85.72972,89.43468 85.87932,89.35668 C86.17732,89.20028 86.45732,89.02068 86.71772,88.82148 C88.41172,87.52588 89.27852,85.38428 88.88452,83.19748 C88.88452,83.19708 88.88452,83.19668 88.88412,83.19668" id="Fill-1"></path>
                <path d="M99.25804,63.27436 C100.39924,62.57836 101.90364,62.73076 102.88524,63.65676 C103.41724,64.15876 103.74964,64.83116 103.82084,65.54916 C103.90724,66.41676 103.61324,67.27916 103.01404,67.91436 L97.21644,74.06636 L97.19644,74.08796 C97.13804,74.12356 97.07564,74.14716 97.01604,74.17796 C96.94644,74.21396 96.87804,74.25236 96.80684,74.28236 C96.72444,74.31716 96.64004,74.34236 96.55564,74.36956 C96.48204,74.39316 96.40884,74.41956 96.33364,74.43716 C96.24844,74.45756 96.16244,74.46756 96.07564,74.48036 C95.99924,74.49156 95.92324,74.50636 95.84644,74.51156 C95.75924,74.51716 95.67244,74.51316 95.58524,74.51156 C95.50844,74.50996 95.43164,74.51316 95.35484,74.50596 C95.26684,74.49756 95.18084,74.47876 95.09364,74.46276 C95.01924,74.44916 94.94444,74.44076 94.87084,74.42156 C94.78084,74.39836 94.69364,74.36316 94.60564,74.33116 C94.53884,74.30716 94.47044,74.28876 94.40524,74.25996 C94.30764,74.21636 94.21564,74.16036 94.12204,74.10676 C94.07124,74.07716 94.01684,74.05396 93.96764,74.02116 C93.82804,73.92876 93.69404,73.82436 93.56924,73.70636 L93.56884,73.70596 C93.03684,73.20396 92.70444,72.53196 92.63324,71.81316 C92.54724,70.94596 92.84124,70.08396 93.44084,69.44876 L99.25804,63.27436 Z M113.03964,58.60276 C112.90164,57.21196 112.26244,55.91476 111.23924,54.94956 C110.10924,53.88396 108.63444,53.31236 107.08084,53.36876 C105.52924,53.41516 104.08764,54.06396 103.02324,55.19476 L91.40324,67.52796 C90.24804,68.75316 89.68084,70.41596 89.84724,72.08956 C89.88164,72.43716 89.94764,72.77916 90.04284,73.11116 C90.10524,73.32956 90.18324,73.54276 90.27044,73.75156 C90.58284,74.49716 91.04844,75.17716 91.64764,75.74236 C91.64764,75.74236 91.64804,75.74236 91.64804,75.74276 C91.71564,75.80636 91.78724,75.86236 91.85684,75.92196 C92.94164,76.85516 94.27924,77.33716 95.62964,77.3367602 C96.75404,77.3367602 97.88524,77.00636 98.87884,76.33436 C98.87884,76.33436 98.87924,76.33436 98.87924,76.33396 C98.88044,76.33316 98.88204,76.33276 98.88324,76.33196 L99.01164,76.24476 L99.04684,76.20756 C99.33804,75.99556 99.61564,75.76156 99.86324,75.49796 L111.48404,63.16436 C112.63924,61.93916 113.20604,60.27636 113.03964,58.60276 L113.03964,58.60276 Z" id="Fill-3"></path>
                <path d="M89.22836,55.1474 L81.95996,50.7734 L81.95996,50.7734 C81.03796,49.805 80.86676,48.3038 81.56356,47.1478 C81.94076,46.5214 82.52756,46.0538 83.21556,45.8314 C84.04476,45.5622 84.94876,45.6678 85.69676,46.1182 L92.93956,50.4766 L92.96516,50.4918 C93.01236,50.5414 93.04916,50.5978 93.09236,50.6502 C93.14156,50.7098 93.19316,50.7682 93.23756,50.831 C93.28916,50.905 93.33276,50.9826 93.37756,51.0602 C93.41556,51.1266 93.45636,51.1914 93.48916,51.2598 C93.52796,51.341 93.55716,51.425 93.58836,51.5086 C93.61476,51.579 93.64436,51.6482 93.66516,51.7202 C93.69036,51.807 93.70516,51.8962 93.72276,51.985 C93.73676,52.057 93.75516,52.1282 93.76436,52.201 C93.77556,52.2934 93.77556,52.3866 93.77836,52.4798 C93.78036,52.5506 93.78756,52.621 93.78516,52.6918 C93.78116,52.7902 93.76476,52.8874 93.75156,52.9854 C93.74196,53.051 93.73916,53.117 93.72596,53.1822 C93.70356,53.2902 93.66756,53.3958 93.63316,53.5014 C93.61596,53.5546 93.60556,53.6086 93.58556,53.661 C93.52436,53.8174 93.45076,53.9702 93.36196,54.1174 L93.36156,54.1178 C92.98436,54.7442 92.39756,55.2118 91.71036,55.4342 C90.88076,55.703 89.97716,55.5986 89.22836,55.1474 M73.26516,48.809 L87.78436,57.5462 C88.70036,58.0978 89.73836,58.3802 90.78436,58.3802 C91.38476,58.3802 91.98796,58.2874 92.57196,58.0982 C92.73796,58.0446 92.90156,57.9834 93.06076,57.9154 C94.17796,57.4386 95.12436,56.6174 95.75996,55.563 C95.91836,55.3002 96.05036,55.0294 96.16356,54.7538 C96.17676,54.7218 96.19316,54.6898 96.20596,54.6574 C96.21396,54.6374 96.21956,54.617 96.22676,54.597 C96.49156,53.8962 96.61196,53.1654 96.59756,52.4406 C96.56836,50.9418 95.95756,49.4726 94.80196,48.3702 C94.80156,48.3698 94.80156,48.3698 94.80116,48.3694 C94.80036,48.369 94.79996,48.3678 94.79916,48.3674 L94.68716,48.2606 L94.64316,48.2342 C94.37356,47.9938 94.08636,47.7726 93.77636,47.5866 L79.25716,38.8494 C77.81556,37.981 76.06996,37.779 74.46996,38.2974 C73.13916,38.727 72.00716,39.6278 71.28156,40.833 C70.47996,42.1634 70.24476,43.7254 70.61956,45.2322 C70.99396,46.7386 71.93396,48.009 73.26516,48.809" id="Fill-5"></path>
                <path d="M4.28888,17.081 L41.66408,2.9138 C41.82728,2.8522 41.99688,2.8214 42.16568,2.8214 C42.36368,2.8214 42.56088,2.8634 42.74648,2.947 C43.09128,3.1022 43.35488,3.3822 43.48888,3.7358 L46.87488,12.6686 L36.49768,16.6022 L32.80408,18.0022 L29.11128,19.4022 L20.37248,22.7146 L18.42808,23.4518 L17.02808,23.9822 L6.57848,27.9434 L3.29648,19.2862 C2.96248,18.4046 3.40768,17.4154 4.28888,17.081 L4.28888,17.081 Z M37.69368,48.5522 L11.35528,48.5522 L11.35528,37.303 C11.35528,30.803 16.64328,25.5146 23.14328,25.5146 L29.54848,25.5146 L29.54848,24.1146 L29.54848,22.7146 L28.27248,22.7146 L37.01128,19.4022 L53.98448,19.4022 C54.82528,19.4022 55.50888,20.0858 55.50888,20.9262 L55.50888,22.7146 L54.13928,22.7146 L51.43688,22.7146 L51.43688,24.1146 L51.43688,25.5146 L54.13928,25.5146 C59.76128,25.5146 64.33448,30.0886 64.33448,35.7102 L64.33448,48.5522 L37.69368,48.5522 Z M37.69368,73.9706 L63.98208,73.9706 L63.98208,51.3522 L37.69368,51.3522 L37.69368,73.9706 Z M22.58688,57.281 C22.24408,56.8482 22.31608,56.2194 22.74888,55.8758 C23.18208,55.5322 23.81088,55.6054 24.15408,56.0382 L27.43048,60.169 L30.70688,56.0382 C31.05008,55.6058 31.67848,55.5326 32.11208,55.8758 C32.54488,56.2194 32.61688,56.8482 32.27408,57.281 L28.70688,61.7786 L32.27408,66.2758 C32.61688,66.7086 32.54488,67.3378 32.11208,67.681 C31.92808,67.8266 31.70888,67.8974 31.49128,67.8974 C31.19648,67.8974 30.90448,67.7678 30.70688,67.519 L27.43048,63.3878 L24.15408,67.519 C23.95648,67.7678 23.66448,67.8974 23.36968,67.8974 C23.15208,67.8974 22.93288,67.8266 22.74888,67.681 C22.31608,67.3378 22.24408,66.7086 22.58688,66.2758 L26.15408,61.7786 L22.58688,57.281 Z M20.78008,66.3794 C20.96848,66.8982 20.70088,67.4722 20.18168,67.661 C20.06928,67.7022 19.95368,67.7218 19.84008,67.7218 C19.43128,67.7218 19.04808,67.4694 18.90008,67.063 L17.29608,62.655 C16.50768,62.853 15.73528,62.899 15.19168,62.905 L15.19168,66.5866 C15.19168,67.139 14.74408,67.5866 14.19168,67.5866 C13.63928,67.5866 13.19168,67.139 13.19168,66.5866 L13.19168,55.0406 L14.09048,54.9494 C14.44328,54.9142 17.58128,54.645 19.34488,56.2382 C20.09248,56.9134 20.48728,57.8366 20.48728,58.9078 C20.48728,60.0174 20.08488,60.965 19.32368,61.6478 C19.25808,61.7066 19.18408,61.7522 19.11528,61.8058 L20.78008,66.3794 Z M64.33448,90.0686 C64.33448,91.7038 63.00408,93.0342 61.36888,93.0342 L14.47368,93.0342 C12.75408,93.0342 11.35528,91.6354 11.35528,89.9158 L11.35528,76.7706 L37.69368,76.7706 L64.33448,76.7706 L64.33448,90.0686 Z M58.30888,23.4046 L58.30888,20.9262 C58.30888,18.5418 56.36888,16.6022 53.98448,16.6022 L44.39728,16.6022 L50.48568,14.2942 L46.10688,2.7434 C45.70808,1.6902 44.92248,0.8558 43.89608,0.3938 C42.86968,-0.069 41.72368,-0.1038 40.67168,0.2958 L3.29648,14.463 C0.97168,15.3446 -0.20272,17.9534 0.67848,20.2782 L4.95248,31.5546 L10.97288,29.2722 C9.44688,31.5774 8.55528,34.3374 8.55528,37.303 L8.55528,48.5522 L8.55528,76.7706 L8.55528,89.9158 C8.55528,93.179 11.21048,95.8342 14.47368,95.8342 L61.36888,95.8342 C64.54808,95.8342 67.13448,93.2478 67.13448,90.0686 L67.13448,35.7102 C67.13448,30.0026 63.43448,25.1466 58.30888,23.4046 L58.30888,23.4046 Z" id="Fill-7"></path>
                <polygon id="Fill-9" points="32.726 24.1146 32.726 25.5146 48.2596 25.5146 48.2596 24.1146 48.2596 22.7146 32.726 22.7146"></polygon>
                <path d="M15.19164,56.91696 L15.19164,60.90376 C15.99644,60.90736 17.30164,60.77696 17.99084,60.15656 C18.32964,59.85136 18.48724,59.45456 18.48724,58.90816 C18.48724,58.39696 18.33364,58.02016 18.00404,57.72216 C17.34004,57.12256 16.09924,56.94536 15.19164,56.91696" id="Fill-11"></path>
                <path d="M51.26036,56.6474 C52.28036,56.6474 53.23516,56.9222 54.06276,57.3966 L46.53836,65.4226 C45.94676,64.5282 45.59996,63.4582 45.59996,62.3078 C45.59996,59.187 48.13916,56.6474 51.26036,56.6474 M51.26036,67.969 C50.30276,67.969 49.40196,67.7282 48.61036,67.3066 L56.07396,59.345 C56.60756,60.2082 56.92076,61.221 56.92076,62.3078 C56.92076,65.4294 54.38156,67.969 51.26036,67.969 M51.26036,53.8474 C46.59516,53.8474 42.79996,57.6426 42.79996,62.3078 C42.79996,66.973 46.59516,70.769 51.26036,70.769 C55.92556,70.769 59.72076,66.973 59.72076,62.3078 C59.72076,57.6426 55.92556,53.8474 51.26036,53.8474" id="Fill-13"></path>
                <polygon id="Fill-15" points="43.14044 11.82396 44.43484 11.29076 41.96404 5.28916 39.37484 6.35556 41.84604 12.35716"></polygon>
                <polygon id="Fill-17" points="38.43344 13.76224 35.96224 7.76064 34.66784 8.29384 33.37344 8.82704 35.84424 14.82864"></polygon>
                <polygon id="Fill-19" points="24.46272 18.00228 24.90032 19.06508 26.19472 18.53188 27.48032 18.00228 27.48912 17.99868 26.91432 16.60228 25.01832 11.99708 23.72352 12.53028 22.42912 13.06348 23.88632 16.60228"></polygon>
            </g>
            <rect id="Rectangle" x="0" y="0" width="200" height="200"></rect>
        </g>
    </g>
</svg>